<svg width="100" height="100" viewBox="0 0 100 100" fill="none" xmlns="http://www.w3.org/2000/svg">
<circle id="RaidPlan_01_2" cx="50.5" cy="50.5" r="36.5" stroke="#D9CBAD" stroke-width="2"/>
<path id="RaidPlan_02_1" d="M20.2578 37.0225C19.7179 36.3941 18.7709 36.3224 18.1425 36.8622C17.5141 37.4021 17.4424 38.3491 17.9822 38.9775L20.2578 37.0225ZM17.9822 60.0225C17.4424 60.6509 17.5141 61.5979 18.1425 62.1378C18.7709 62.6776 19.7179 62.6059 20.2578 61.9775L17.9822 60.0225ZM29 49.5L30.1378 50.4775C30.6207 49.9153 30.6207 49.0847 30.1378 48.5225L29 49.5ZM17.9822 38.9775L27.8622 50.4775L30.1378 48.5225L20.2578 37.0225L17.9822 38.9775ZM27.8622 48.5225L17.9822 60.0225L20.2578 61.9775L30.1378 50.4775L27.8622 48.5225Z" fill="#D9CBAD"/>
<path id="RaidPlan_03_1" d="M11.1378 37.0225C10.5979 36.3941 9.65089 36.3224 9.02252 36.8622C8.39414 37.4021 8.32239 38.3491 8.86224 38.9775L11.1378 37.0225ZM8.86224 60.0225C8.32239 60.6509 8.39414 61.5979 9.02252 62.1378C9.65089 62.6776 10.5979 62.6059 11.1378 61.9775L8.86224 60.0225ZM19.88 49.5L21.0178 50.4775C21.5007 49.9153 21.5007 49.0847 21.0178 48.5225L19.88 49.5ZM8.86224 38.9775L18.7422 50.4775L21.0178 48.5225L11.1378 37.0225L8.86224 38.9775ZM18.7422 48.5225L8.86224 60.0225L11.1378 61.9775L21.0178 50.4775L18.7422 48.5225Z" fill="#D9CBAD"/>
<path id="RaidPlan_04_1" d="M80.7422 61.9775C81.2821 62.6059 82.2291 62.6776 82.8575 62.1378C83.4859 61.5979 83.5576 60.6509 83.0178 60.0225L80.7422 61.9775ZM83.0178 38.9775C83.5576 38.3491 83.4859 37.4021 82.8575 36.8622C82.2291 36.3224 81.2821 36.3941 80.7422 37.0225L83.0178 38.9775ZM72 49.5L70.8622 48.5225C70.3793 49.0847 70.3793 49.9153 70.8622 50.4775L72 49.5ZM83.0178 60.0225L73.1378 48.5225L70.8622 50.4775L80.7422 61.9775L83.0178 60.0225ZM73.1378 50.4775L83.0178 38.9775L80.7422 37.0225L70.8622 48.5225L73.1378 50.4775Z" fill="#D9CBAD"/>
<path id="RaidPlan_05_1" d="M89.8622 61.9775C90.4021 62.6059 91.3491 62.6776 91.9775 62.1378C92.6059 61.5979 92.6776 60.6509 92.1378 60.0225L89.8622 61.9775ZM92.1378 38.9775C92.6776 38.3491 92.6059 37.4021 91.9775 36.8622C91.3491 36.3224 90.4021 36.3941 89.8622 37.0225L92.1378 38.9775ZM81.12 49.5L79.9822 48.5225C79.4993 49.0847 79.4993 49.9153 79.9822 50.4775L81.12 49.5ZM92.1378 60.0225L82.2578 48.5225L79.9822 50.4775L89.8622 61.9775L92.1378 60.0225ZM82.2578 50.4775L92.1378 38.9775L89.8622 37.0225L79.9822 48.5225L82.2578 50.4775Z" fill="#D9CBAD"/>
<path id="RaidPlan_06_1" d="M63.0434 19.3377C63.6718 18.7979 63.7436 17.8508 63.2037 17.2225C62.6639 16.5941 61.7168 16.5223 61.0885 17.0622L63.0434 19.3377ZM40.0434 17.0622C39.4151 16.5223 38.468 16.5941 37.9282 17.2225C37.3883 17.8508 37.4601 18.7979 38.0885 19.3377L40.0434 17.0622ZM50.5659 28.08L49.5885 29.2177C50.1506 29.7007 50.9813 29.7007 51.5434 29.2177L50.5659 28.08ZM61.0885 17.0622L49.5885 26.9422L51.5434 29.2177L63.0434 19.3377L61.0885 17.0622ZM51.5434 26.9422L40.0434 17.0622L38.0885 19.3377L49.5885 29.2177L51.5434 26.9422Z" fill="#D9CBAD"/>
<path id="RaidPlan_07_1" d="M63.0434 10.2177C63.6718 9.67788 63.7436 8.73084 63.2037 8.10247C62.6639 7.4741 61.7168 7.40234 61.0885 7.9422L63.0434 10.2177ZM40.0434 7.9422C39.4151 7.40234 38.468 7.4741 37.9282 8.10247C37.3883 8.73084 37.4601 9.67788 38.0885 10.2177L40.0434 7.9422ZM50.5659 18.96L49.5885 20.0977C50.1506 20.5807 50.9813 20.5807 51.5434 20.0977L50.5659 18.96ZM61.0885 7.9422L49.5885 17.8222L51.5434 20.0977L63.0434 10.2177L61.0885 7.9422ZM51.5434 17.8222L40.0434 7.9422L38.0885 10.2177L49.5885 20.0977L51.5434 17.8222Z" fill="#D9CBAD"/>
<path id="RaidPlan_08_1" d="M38.0885 81.8222C37.4601 82.362 37.3883 83.3091 37.9282 83.9374C38.468 84.5658 39.4151 84.6376 40.0435 84.0977L38.0885 81.8222ZM61.0885 84.0977C61.7168 84.6376 62.6639 84.5658 63.2037 83.9374C63.7436 83.3091 63.6718 82.362 63.0435 81.8222L61.0885 84.0977ZM50.566 73.08L51.5435 71.9422C50.9813 71.4592 50.1506 71.4592 49.5885 71.9422L50.566 73.08ZM40.0435 84.0977L51.5435 74.2177L49.5885 71.9422L38.0885 81.8222L40.0435 84.0977ZM49.5885 74.2177L61.0885 84.0977L63.0435 81.8222L51.5435 71.9422L49.5885 74.2177Z" fill="#D9CBAD"/>
<path id="RaidPlan_09_1" d="M38.0885 90.9422C37.4601 91.482 37.3883 92.4291 37.9282 93.0574C38.468 93.6858 39.4151 93.7576 40.0435 93.2177L38.0885 90.9422ZM61.0885 93.2177C61.7168 93.7576 62.6639 93.6858 63.2037 93.0574C63.7436 92.4291 63.6718 91.482 63.0435 90.9422L61.0885 93.2177ZM50.566 82.2L51.5435 81.0622C50.9813 80.5792 50.1506 80.5792 49.5885 81.0622L50.566 82.2ZM40.0435 93.2177L51.5435 83.3377L49.5885 81.0622L38.0885 90.9422L40.0435 93.2177ZM49.5885 83.3377L61.0885 93.2177L63.0435 90.9422L51.5435 81.0622L49.5885 83.3377Z" fill="#D9CBAD"/>
</svg>
